<?xml version="1.0" encoding="UTF-8" standalone="no"?>
<svg
   version="1.0"
   width="99.791168pt"
   height="131.28705pt"
   viewBox="0 0 99.791168 131.28705"
   preserveAspectRatio="xMidYMid"
   id="svg92"
   xmlns="http://www.w3.org/2000/svg"
   xmlns:svg="http://www.w3.org/2000/svg">
  <defs
     id="defs96" />
  <g
     transform="matrix(0.1,0,0,-0.1,-193.83784,283.0588)"
     fill="#000000"
     stroke="none"
     id="g90">
    <path
       d="m 2282.0401,2814.588 c -171,-54 -302,-197 -334,-365 -12,-64 -13,-168 -2,-175 7,-4 389,517 400,545 5,12 -15,10 -64,-5 z"
       id="path2" />
    <path
       d="m 2303.0401,2592.588 c -93,-131 -192,-270 -219,-308 l -50,-69 41,24 c 292,175 722,446 720,454 -2,6 -30,28 -63,50 -63,43 -142,73 -214,81 l -45,6 z"
       id="path4" />
    <path
       d="m 2618.0401,2251.588 c -146,-174 -271,-324 -277,-334 -7,-9 122,57 286,149 l 300,166 7,63 c 3,35 3,84 0,110 -7,50 -34,143 -45,155 -3,4 -125,-135 -271,-309 z"
       id="path6" />
    <path
       d="m 2361.0401,2304.588 c -189,-116 -343,-214 -343,-218 0,-13 172,-188 181,-183 13,8 511,606 507,609 -1,1 -157,-92 -345,-208 z"
       id="path8" />
    <path
       d="m 2603.0401,1946.588 -230,-128 h 133 132 l 11,28 c 5,15 38,56 72,92 91,95 121,129 116,133 -2,2 -107,-54 -234,-125 z"
       id="path10" />
    <path
       d="m 2241.0401,1686.588 c 3,-23 18,-60 34,-82 89,-127 274,-112 338,27 14,28 25,62 25,75 v 22 h -201 -202 z"
       id="path12" />
  </g>
</svg>
