<?xml version="1.0" encoding="UTF-8" standalone="no"?>
<svg
   version="1.0"
   width="99.791168pt"
   height="131.28705pt"
   viewBox="0 0 99.791168 131.28705"
   preserveAspectRatio="xMidYMid"
   id="svg92"
   xml:space="preserve"
   xmlns="http://www.w3.org/2000/svg"
   xmlns:svg="http://www.w3.org/2000/svg"><defs
     id="defs96" /><g
     transform="matrix(0.1,0,0,-0.1,-193.83784,283.0588)"
     fill="#000000"
     stroke="none"
     id="g90"><path
       d="m 2282.0401,2814.588 c -171,-54 -302,-197 -334,-365 -12,-64 -13,-168 -2,-175 7,-4 389,517 400,545 5,12 -15,10 -64,-5 z"
       id="path2"
       style="fill:#000000" /><path
       d="m 2303.0401,2592.588 c -93,-131 -192,-270 -219,-308 l -50,-69 41,24 c 292,175 722,446 720,454 -2,6 -30,28 -63,50 -63,43 -142,73 -214,81 l -45,6 z"
       id="path4"
       style="fill:#000000" /><path
       d="m 2618.0401,2251.588 c -146,-174 -271,-324 -277,-334 -7,-9 122,57 286,149 l 300,166 7,63 c 3,35 3,84 0,110 -7,50 -34,143 -45,155 -3,4 -125,-135 -271,-309 z"
       id="path6"
       style="fill:#27496d;fill-opacity:1" /><path
       d="m 2361.0401,2304.588 c -189,-116 -343,-214 -343,-218 0,-13 172,-188 181,-183 13,8 511,606 507,609 -1,1 -157,-92 -345,-208 z"
       id="path8"
       style="fill:#000000" /><path
       d="m 2603.0401,1946.588 -230,-128 h 133 132 l 11,28 c 5,15 38,56 72,92 91,95 121,129 116,133 -2,2 -107,-54 -234,-125 z"
       id="path10"
       style="fill:#000000" /><path
       d="m 2241.0401,1686.588 c 3,-23 18,-60 34,-82 89,-127 274,-112 338,27 14,28 25,62 25,75 v 22 h -201 -202 z"
       id="path12"
       style="fill:#0c7b93;fill-opacity:1" /><path
       style="fill:#000000;stroke-width:0.826131"
       d="m 270.72353,169.48599 c 0.36336,-0.61059 12.9218,-18.31168 27.90764,-39.33575 l 27.24699,-38.225577 5.15992,0.52865 c 6.3979,0.655484 14.79378,3.201648 21.30699,6.461635 5.68714,2.846522 15.28343,9.456012 15.28343,10.526532 0,0.76341 -25.39427,17.24161 -51.63322,33.50452 -23.14746,14.3468 -45.04824,27.65015 -45.51937,27.65015 -0.22716,0 -0.11573,-0.49958 0.24762,-1.11016 z"
       id="path1573"
       transform="matrix(7.5,0,0,-7.5,29.661017,3514.8305)" /><path
       style="fill:#000000;stroke-width:0.826131"
       d="m 270.72353,169.4786 c 0.36336,-0.61465 12.92182,-18.31573 27.90768,-39.33574 l 27.24703,-38.218189 5.15988,0.528645 c 6.39786,0.655481 14.79375,3.201651 21.30695,6.461632 5.68714,2.846522 15.28343,9.456012 15.28343,10.526532 0,0.67477 -22.70339,15.49647 -46.26336,30.20261 -17.29062,10.79281 -50.42802,30.95206 -50.87842,30.95206 -0.23311,0 -0.12654,-0.5029 0.23681,-1.11755 z"
       id="path1575"
       transform="matrix(7.5,0,0,-7.5,29.661017,3514.8305)" /><path
       style="fill:#27496d;fill-opacity:1;stroke-width:0.826131"
       d="m 270.68013,169.56348 c 0.60968,-0.99515 23.72367,-33.55333 44.93505,-63.29514 l 10.23195,-14.346856 5.17544,0.530239 c 7.00925,0.718118 15.10949,3.301202 22.56169,7.194692 6.8269,3.566785 14.04424,8.583155 14.04424,9.761355 0,0.70333 -22.32875,15.29662 -46.26336,30.2361 -18.43891,11.50918 -50.38597,30.95228 -50.85786,30.95228 -0.25289,0 -0.17511,-0.4647 0.17285,-1.03267 z"
       id="path1577"
       transform="matrix(7.5,0,0,-7.5,29.661017,3514.8305)" /></g></svg>
