<?xml version="1.0" encoding="UTF-8" standalone="no"?>
<svg
   width="60.000004"
   height="60.000004"
   viewBox="0 0 60.000004 60.000004"
   version="1.1"
   id="svg10"
   xmlns="http://www.w3.org/2000/svg"
   xmlns:svg="http://www.w3.org/2000/svg">
  <defs
     id="defs14" />
  <!-- Background Circle -->
  <!-- Left Angle Bracket `<` -->
  <!-- Slash `/` -->
  <!-- Right Angle Bracket `>` -->
  <path
     style="fill:#5d78ff"
     id="path1052"
     d="M -1.6701029e-6,31.186441 C -2.0439692,36.356477 -6.842373,30.182212 -10.70924,34.176509 c -3.866866,3.994298 2.4596798,8.590061 -2.641391,10.800525 -5.10107,2.210464 -4.128189,-5.548384 -9.686872,-5.458277 -5.558683,0.09011 -4.334834,7.813346 -9.50487,5.769379 -5.170036,-2.043968 1.004229,-6.842372 -2.990068,-10.709238 -3.994298,-3.866867 -8.590061,2.459679 -10.800525,-2.641391 -2.210464,-5.101071 5.548384,-4.12819 5.458277,-9.686873 -0.09011,-5.558682 -7.813346,-4.334834 -5.769379,-9.50487 2.043967,-5.1700353 6.842371,1.00423 10.709238,-2.9900679 3.866867,-3.9942977 -2.459679,-8.590061 2.641391,-10.800525 5.101071,-2.210464 4.12819,5.5483845 9.686872,5.4582773 5.558683,-0.090107 4.334835,-7.8133465 9.50487,-5.769379 5.1700361,2.04396752 -1.004229,6.8423713 2.990069,10.709238 3.9942973,3.8668666 8.5900607,-2.4596794 10.80052471,2.6413916 2.21046399,5.10107 -5.54838451,4.128189 -5.45827731,9.686872 0.090107,5.558682 7.8133464,4.334834 5.7693789298971,9.50487 z"
     transform="matrix(1.2676293,0,0,1.2676293,59.563696,2.1551257)" />
  <circle
     style="fill:#ffffff;stroke-width:0.895024"
     id="path1054"
     cx="30.000002"
     cy="29.999998"
     r="12.5" />
</svg>
